<svg xmlns="http://www.w3.org/2000/svg" width="26" height="26" viewBox="0 0 26 26">
  <g id="Group_2162" data-name="Group 2162" transform="translate(-1237 -2019)">
    <rect id="Boundary" width="26" height="26" transform="translate(1237 2019)" fill="rgba(255,0,0,0)"/>
    <path id="_Color" data-name=" ↳Color" d="M16.667,15.55a3.246,3.246,0,0,0-2.178.85L6.567,11.817a3.6,3.6,0,0,0,.1-.773,3.6,3.6,0,0,0-.1-.773L14.4,5.732a3.3,3.3,0,1,0-1.067-2.419,3.6,3.6,0,0,0,.1.773L5.6,8.626a3.313,3.313,0,1,0,0,4.837l7.911,4.594a3.1,3.1,0,0,0-.089.718,3.245,3.245,0,1,0,3.244-3.225Z" transform="translate(1240 2021)" fill="#333"/>
  </g>
</svg>
 