<svg id="Group_2004" data-name="Group 2004" xmlns="http://www.w3.org/2000/svg" xmlns:xlink="http://www.w3.org/1999/xlink" width="13.987" height="23.937" viewBox="0 0 13.987 23.937">
  <defs>
    <clipPath id="clip-path">
      <path id="Path_1042" data-name="Path 1042" d="M0-15.291H13.987V-39.228H0Z" transform="translate(0 39.228)" fill="none"/>
    </clipPath>
  </defs>
  <g id="Group_2003" data-name="Group 2003" transform="translate(0 0)" clip-path="url(#clip-path)">
    <g id="Group_2002" data-name="Group 2002" transform="translate(0 0)">
      <path id="Path_1041" data-name="Path 1041" d="M-6.415-8.536l.725-4.3h-4.534v-2.79c0-1.176.633-2.323,2.664-2.323H-5.5v-3.66a27.563,27.563,0,0,0-3.66-.29c-3.735,0-6.175,2.059-6.175,5.786v3.277h-4.151v4.3h4.151V1.856a18.04,18.04,0,0,0,2.554.181,18.049,18.049,0,0,0,2.555-.181V-8.536Z" transform="translate(19.485 21.899)" fill="#fff"/>
    </g>
  </g>
</svg>
