<svg id="post" xmlns="http://www.w3.org/2000/svg" xmlns:xlink="http://www.w3.org/1999/xlink" width="62" height="62" viewBox="0 0 62 62">
  <defs>
    <clipPath id="clip-path">
      <path id="Path_55" data-name="Path 55" d="M0,13.251H62v-62H0Z" transform="translate(0 48.749)" fill="none"/>
    </clipPath>
  </defs>
  <g id="Group_67" data-name="Group 67" transform="translate(0 0)" clip-path="url(#clip-path)">
    <g id="Group_66" data-name="Group 66" transform="translate(0 -0.001)">
      <path id="Path_54" data-name="Path 54" d="M13.251,6.626a31,31,0,0,1-31,31,31,31,0,0,1-31-31,31,31,0,0,1,31-31,31,31,0,0,1,31,31" transform="translate(48.749 24.375)" fill="#fff"/>
    </g>
  </g>
  <g id="Group_68" data-name="Group 68" transform="translate(20.701 14.175)">
    <path id="Path_56" data-name="Path 56" d="M0,0H-16.179V20.71H4.42V0ZM-1.321,15.048H-4.03L-7.975,9.921v5.127h-2.464V5.662h2.717L-3.784,11.2V5.662h2.463Z" transform="translate(16.179)"/>
  </g>
  <g id="Group_69" data-name="Group 69" transform="translate(20.701 41.621)">
    <path id="Path_57" data-name="Path 57" d="M0,0,7.217-8.445h-20.6L-6.166,0Z" transform="translate(13.382 8.445)"/>
  </g>
  <g id="Group_70" data-name="Group 70" transform="translate(28.546 53.754)">
    <path id="Path_58" data-name="Path 58" d="M0,0,2.454,2.872,4.908,0Z"/>
  </g>
</svg>
