<svg id="twitter" xmlns="http://www.w3.org/2000/svg" xmlns:xlink="http://www.w3.org/1999/xlink" width="62" height="62" viewBox="0 0 62 62">
  <defs>
    <clipPath id="clip-path">
      <path id="Path_49" data-name="Path 49" d="M0,13.251H62v-62H0Z" transform="translate(0 48.749)" fill="none"/>
    </clipPath>
  </defs>
  <g id="Group_58" data-name="Group 58" transform="translate(0 0)" clip-path="url(#clip-path)">
    <g id="Group_56" data-name="Group 56" transform="translate(0 -0.001)">
      <path id="Path_47" data-name="Path 47" d="M13.251,6.626a31,31,0,0,1-31,31,31,31,0,0,1-31-31,31,31,0,0,1,31-31,31,31,0,0,1,31,31" transform="translate(48.749 24.375)" fill="#fff"/>
    </g>
    <g id="Group_57" data-name="Group 57" transform="translate(14.456 17.043)">
      <path id="Path_48" data-name="Path 48" d="M7.2.713a13.95,13.95,0,0,1-3.42.975C4.327,1.6,5.135.6,5.458.2A6.267,6.267,0,0,0,6.594-1.873c.029-.059.051-.132-.008-.177a.19.19,0,0,0-.182.015A17.429,17.429,0,0,1,2.351-.484a.272.272,0,0,1-.28-.074A3.312,3.312,0,0,0,1.716-.92a7.176,7.176,0,0,0-1.964-1.2,6.832,6.832,0,0,0-3.012-.485A7.185,7.185,0,0,0-6.117-1.8,7.367,7.367,0,0,0-8.421.082,7.079,7.079,0,0,0-9.8,2.839a7.476,7.476,0,0,0-.072,2.911c.022.162.008.184-.14.162-5.568-.828-10.183-2.821-13.93-7.089-.163-.186-.251-.186-.384.014-1.639,2.457-.844,6.4,1.2,8.346.273.258.553.518.856.753a7.1,7.1,0,0,1-2.689-.753c-.162-.1-.244-.045-.258.14a4.2,4.2,0,0,0,.045.8,7.143,7.143,0,0,0,4.4,5.694,4.13,4.13,0,0,0,.894.273,7.962,7.962,0,0,1-2.636.081c-.193-.037-.266.059-.193.244,1.161,3.162,3.664,4.1,5.54,4.638.251.043.5.043.754.1-.015.023-.031.023-.045.046-.622.948-2.779,1.653-3.784,2a13.535,13.535,0,0,1-5.745.735c-.309-.045-.374-.042-.458,0s-.01.126.089.206c.392.259.79.488,1.2.71a18.96,18.96,0,0,0,3.84,1.536c6.9,1.906,14.677.506,19.858-4.643,4.07-4.043,5.5-9.619,5.5-15.2,0-.219.258-.34.411-.455a13.42,13.42,0,0,0,2.7-2.809A.852.852,0,0,0,7.335.742V.713c0-.089,0-.062-.139,0" transform="translate(26.475 2.623)"/>
    </g>
  </g>
</svg>
