<svg id="insta" xmlns="http://www.w3.org/2000/svg" xmlns:xlink="http://www.w3.org/1999/xlink" width="62" height="62" viewBox="0 0 62 62">
  <defs>
    <clipPath id="clip-path">
      <path id="Path_46" data-name="Path 46" d="M0,13.251H62v-62H0Z" transform="translate(0 48.749)" fill="none"/>
    </clipPath>
  </defs>
  <g id="Group_55" data-name="Group 55" transform="translate(0 0)" clip-path="url(#clip-path)">
    <g id="Group_51" data-name="Group 51" transform="translate(0 -0.001)">
      <path id="Path_42" data-name="Path 42" d="M13.251,6.626a31,31,0,0,1-31,31,31,31,0,0,1-31-31,31,31,0,0,1,31-31,31,31,0,0,1,31,31" transform="translate(48.749 24.375)" fill="#fff"/>
    </g>
    <g id="Group_52" data-name="Group 52" transform="translate(38.492 19.272)">
      <path id="Path_43" data-name="Path 43" d="M.455,0a2.131,2.131,0,1,0,2.13,2.13A2.13,2.13,0,0,0,.455,0" transform="translate(1.675)"/>
    </g>
    <g id="Group_53" data-name="Group 53" transform="translate(22.198 22.005)">
      <path id="Path_44" data-name="Path 44" d="M1.913,0a8.951,8.951,0,1,0,0,17.9,8.951,8.951,0,0,0,0-17.9m0,14.684A5.733,5.733,0,1,1,7.646,8.951a5.739,5.739,0,0,1-5.733,5.733" transform="translate(7.038)"/>
    </g>
    <g id="Group_54" data-name="Group 54" transform="translate(12.826 12.783)">
      <path id="Path_45" data-name="Path 45" d="M5.435,7.768H-9.076A10.93,10.93,0,0,1-20-3.149V-17.662A10.93,10.93,0,0,1-9.076-28.579H5.435A10.931,10.931,0,0,1,16.354-17.662V-3.149A10.931,10.931,0,0,1,5.435,7.768M-9.076-25.159a7.506,7.506,0,0,0-7.5,7.5V-3.149a7.507,7.507,0,0,0,7.5,7.5H5.435a7.507,7.507,0,0,0,7.5-7.5V-17.662a7.506,7.506,0,0,0-7.5-7.5Z" transform="translate(19.995 28.579)"/>
    </g>
  </g>
</svg>
