<svg xmlns="http://www.w3.org/2000/svg" xmlns:xlink="http://www.w3.org/1999/xlink" width="26.434" height="21.757" viewBox="0 0 26.434 21.757">
  <defs>
    <clipPath id="clip-path">
      <path id="Path_1048" data-name="Path 1048" d="M0-.124H26.434V-21.881H0Z" transform="translate(0 21.881)" fill="none"/>
    </clipPath>
  </defs>
  <g id="Group_2011" data-name="Group 2011" transform="translate(0 0)" clip-path="url(#clip-path)">
    <g id="Group_2010" data-name="Group 2010" transform="translate(0 0)">
      <path id="Path_1047" data-name="Path 1047" d="M-.15-.015A10.907,10.907,0,0,1-2.823.748C-2.393.675-1.761-.1-1.509-.418A4.9,4.9,0,0,0-.621-2.036c.023-.046.04-.1-.006-.138a.149.149,0,0,0-.142.012A13.626,13.626,0,0,1-3.938-.951a.213.213,0,0,1-.219-.058,2.59,2.59,0,0,0-.277-.283A5.61,5.61,0,0,0-5.97-2.232a5.342,5.342,0,0,0-2.355-.379,5.617,5.617,0,0,0-2.234.63,5.76,5.76,0,0,0-1.8,1.473,5.535,5.535,0,0,0-1.077,2.156,5.845,5.845,0,0,0-.057,2.276c.017.126.006.144-.109.126-4.353-.647-7.962-2.205-10.891-5.542-.127-.145-.2-.145-.3.011a5.521,5.521,0,0,0,.942,6.525c.214.2.433.4.669.589a5.55,5.55,0,0,1-2.1-.589c-.126-.081-.191-.035-.2.109a3.285,3.285,0,0,0,.035.624,5.584,5.584,0,0,0,3.441,4.452,3.229,3.229,0,0,0,.7.214,6.225,6.225,0,0,1-2.061.064c-.151-.029-.208.046-.151.191a5.8,5.8,0,0,0,4.331,3.626c.2.034.393.034.59.08-.012.018-.024.018-.035.036-.486.741-2.173,1.293-2.958,1.567a10.582,10.582,0,0,1-4.491.575c-.242-.035-.292-.033-.358,0s-.008.1.07.161c.306.2.617.382.936.555a14.823,14.823,0,0,0,3,1.2c5.4,1.491,11.475.4,15.526-3.63,3.182-3.161,4.3-7.52,4.3-11.885,0-.171.2-.265.321-.356A10.493,10.493,0,0,0-.181.43.666.666,0,0,0-.041.008V-.015c0-.07,0-.049-.108,0" transform="translate(26.475 2.623)" fill="#fff"/>
    </g>
  </g>
</svg>
